# xmcd CD database file
#
# Track frame offsets:
#	150
#	33631
#	62658
#	87443
#	113996
#	141040
#	165782
#	199967
#	223266
#	244708
#	262866
#	287557
#
# Disc length: 4185 seconds
#
# Revision: 0
# Processed by: cddbd v1.4PL0 Copyright (c) Steve Scherf et al.
# Submitted via: CDex 1.50
#
DISCID=ac10570c
DTITLE=Grover Washington, Jr. - The Essentials
DYEAR=1900
DGENRE=Jazz
TTITLE0=Just The Two Of Us
TTITLE1=Be Mine (Tonight)
TTITLE2=Tell Me About It Now
TTITLE3=Let It Flow (For "Dr. J"
TTITLE4=The Best Is Yet To Come
TTITLE5=In The Name Of Love
TTITLE6=Winelight
TTITLE7=Jamming
TTITLE8=East River Drive
TTITLE9=Cassie's Theme
TTITLE10=Jet Stream
TTITLE11=Inside Moves
EXTD=
EXTT0=
EXTT1=
EXTT2=
EXTT3=
EXTT4=
EXTT5=
EXTT6=
EXTT7=
EXTT8=
EXTT9=
EXTT10=
EXTT11=
PLAYORDER=
